{
	"asset":{
		"generator":"Khronos glTF Blender I/O v3.6.27",
		"version":"2.0"
	},
	"scene":0,
	"scenes":[
		{
			"name":"Scene",
			"nodes":[
				0,
				1
			]
		}
	],
	"nodes":[
		{
			"mesh":0,
			"name":"\u043a\u043e\u043b\u044c\u0446\u043e",
			"rotation":[
				0.3826834261417389,
				0,
				0,
				0.9238795638084412
			],
			"scale":[
				0.16435527801513672,
				0.16435527801513672,
				0.16435527801513672
			]
		},
		{
			"mesh":1,
			"name":"\u0440\u0435\u043b\u044c\u0435\u0444 low",
			"rotation":[
				0.3826834261417389,
				0,
				0,
				0.9238795638084412
			]
		}
	],
	"materials":[
		{
			"doubleSided":true,
			"name":"Material.002",
			"pbrMetallicRoughness":{
				"baseColorFactor":[
					0.800000011920929,
					0.800000011920929,
					0.800000011920929,
					1
				],
				"roughnessFactor":0
			}
		},
		{
			"doubleSided":true,
			"name":"Material.003",
			"pbrMetallicRoughness":{
				"baseColorFactor":[
					0.800000011920929,
					0.800000011920929,
					0.800000011920929,
					1
				],
				"roughnessFactor":0
			}
		}
	],
	"meshes":[
		{
			"name":"\u043a\u043e\u043b\u044c\u0446\u043e 19.002",
			"primitives":[
				{
					"attributes":{
						"POSITION":0,
						"NORMAL":1
					},
					"indices":2,
					"material":0
				}
			]
		},
		{
			"name":"\u043a\u043e\u043b\u044c\u0446\u043e 19.003",
			"primitives":[
				{
					"attributes":{
						"POSITION":3,
						"NORMAL":4,
						"TEXCOORD_0":5
					},
					"indices":6,
					"material":1
				}
			]
		}
	],
	"accessors":[
		{
			"bufferView":0,
			"componentType":5126,
			"count":17469,
			"max":[
				12.228111267089844,
				11.946537017822266,
				3.437481641769409
			],
			"min":[
				-12.272047996520996,
				-11.052290916442871,
				-3.026325225830078
			],
			"type":"VEC3"
		},
		{
			"bufferView":1,
			"componentType":5126,
			"count":17469,
			"type":"VEC3"
		},
		{
			"bufferView":2,
			"componentType":5123,
			"count":87567,
			"type":"SCALAR"
		},
		{
			"bufferView":3,
			"componentType":5126,
			"count":26923,
			"max":[
				1.934797763824463,
				1.8554790019989014,
				0.49040696024894714
			],
			"min":[
				-1.477400302886963,
				1.7865979671478271,
				-0.4386875629425049
			],
			"type":"VEC3"
		},
		{
			"bufferView":4,
			"componentType":5126,
			"count":26923,
			"type":"VEC3"
		},
		{
			"bufferView":5,
			"componentType":5126,
			"count":26923,
			"type":"VEC2"
		},
		{
			"bufferView":6,
			"componentType":5123,
			"count":40014,
			"type":"SCALAR"
		}
	],
	"bufferViews":[
		{
			"buffer":0,
			"byteLength":209628,
			"byteOffset":0,
			"target":34962
		},
		{
			"buffer":0,
			"byteLength":209628,
			"byteOffset":209628,
			"target":34962
		},
		{
			"buffer":0,
			"byteLength":175134,
			"byteOffset":419256,
			"target":34963
		},
		{
			"buffer":0,
			"byteLength":323076,
			"byteOffset":594392,
			"target":34962
		},
		{
			"buffer":0,
			"byteLength":323076,
			"byteOffset":917468,
			"target":34962
		},
		{
			"buffer":0,
			"byteLength":215384,
			"byteOffset":1240544,
			"target":34962
		},
		{
			"buffer":0,
			"byteLength":80028,
			"byteOffset":1455928,
			"target":34963
		}
	],
	"buffers":[
		{
			"byteLength":1535956,
			"uri":"data:application/octet-stream;base64,"
		}
	]
}
